#!OML:ASF H:\Terrain\Patient Classification 1\Walking\steve\steve.ASF
:FULLY-SPECIFIED
:DEGREES
260
root 8.24014 16.8324 29.581 5.64104 -2.86705 -4.1814
lowerback 0.275721 3.36364 5.67486
upperback -2.18311 4.60882 1.77038
thorax -2.10678 2.21305 -1.42841
lowerneck -11.5375 -2.95813 -5.04853
upperneck 17.7868 -3.9801 4.64387
head 7.56539 -1.81132 1.96303
rclavicle 9.42364e-015 -6.36111e-015
rhumerus -29.5379 -4.28696 -82.8867
rradius 51.0912
rwrist -4.01596
rhand 175.962 -67.946
rfingers 7.12502
rthumb -158.282 -39.1442
lclavicle 9.42364e-015 -6.36111e-015
lhumerus -40.3891 8.40812 84.3767
lradius 16.8305
lwrist -1.73054
lhand -26.5813 -18.7454
lfingers 7.12502
lthumb -0.0156927 11.2344
rfemur -11.1075 -0.880303 29.1531
rtibia 32.2343
rfoot -16.7009 17.6504
rtoes 3.64286
lfemur -35.4244 7.31221 -16.8816
ltibia 54.54
lfoot -13.3285 4.02129
ltoes -13.2871
261
root 8.25531 16.8284 29.8046 5.63892 -3.46377 -4.61039
lowerback -1.68199 3.57835 6.231
upperback -0.550969 4.65138 1.87982
thorax 0.711493 2.32861 -1.42266
lowerneck -13.0574 -2.84058 -4.65791
upperneck 17.0369 -3.73722 4.29705
head 7.5632 -1.6838 1.79128
rclavicle -5.30507e-014 -1.90833e-014
rhumerus -26.0937 -3.30253 -83.0783
rradius 52.8225
rwrist -4.79346
rhand 176.122 -67.6693
rfingers 7.12502
rthumb -158.129 -38.8854
lclavicle -5.30507e-014 -1.90833e-014
lhumerus -39.1033 13.0847 81.5766
lradius 14.5173
lwrist -7.67841
lhand -25.67 -19.4566
lfingers 7.12502
lthumb 0.864453 10.5214
rfemur -9.7269 -1.00705 29.3567
rtibia 31.3345
rfoot -16.2868 18.3874
rtoes 3.40386
lfemur -35.6927 7.36566 -16.367
ltibia 51.3864
lfoot -14.3375 4.08254
ltoes -9.15268
262
root 8.27212 16.83 30.0343 5.77897 -3.94709 -4.88744
lowerback -1.13372 3.68362 6.59119
upperback -0.988294 4.85672 1.80705
thorax 0.00317087 2.40358 -1.74467
lowerneck -13.0009 -2.55812 -3.93858
upperneck 17.3601 -3.41711 3.80305
head 7.62201 -1.53005 1.54535
rclavicle 2.20899e-014 9.14409e-015
rhumerus -25.9013 -2.49389 -83.2843
rradius 54.7587
rwrist -5.55364
rhand 176.346 -67.6974
rfingers 7.12502
rthumb -157.914 -38.9387
lclavicle 2.20899e-014 9.14409e-015
lhumerus -41.6684 16.985 77.5867
lradius 13.0846
lwrist -13.4987
lhand -25.5182 -20.1461
lfingers 7.12502
lthumb 1.01107 9.83122
rfemur -8.5266 -1.33351 29.3353
rtibia 30.4889
rfoot -15.4566 19.6367
rtoes 3.23827
lfemur -35.9614 7.2047 -15.9914
ltibia 47.9055
lfoot -15.3943 4.48963
ltoes -10.1515
263
root 8.29528 16.8319 30.2686 5.85599 -4.44711 -4.58001
lowerback 0.0645045 3.71095 6.22304
upperback -1.93086 5.04535 1.67887
thorax -1.64632 2.43697 -1.79864
lowerneck -12.2853 -2.57106 -4.16498
upperneck 17.8597 -3.45447 3.92937
head 7.6666 -1.55791 1.62848
rclavicle 7.7203e-014 3.06128e-014
rhumerus -26.5515 -1.20079 -83.3668
rradius 56.6518
rwrist -6.12357
rhand 176.846 -67.5433
rfingers 7.12502
rthumb -157.434 -38.8422
lclavicle 7.7203e-014 3.06128e-014
lhumerus -45.3592 19.8575 73.401
lradius 11.9549
lwrist -18.3422
lhand -25.19 -20.2773
lfingers 7.12502
lthumb 1.32804 9.69831
rfemur -7.28872 -1.89726 28.592
rtibia 29.5948
rfoot -14.1494 21.3159
rtoes 4.09638
lfemur -35.9514 6.82736 -16.232
ltibia 44.1513
lfoot -16.3873 5.10491
ltoes -12.4327
264
root 8.32213 16.8214 30.5026 5.88386 -4.86042 -4.14002
lowerback -1.70542 3.88182 6.16827
upperback -0.580986 5.05831 1.4474
thorax 0.756253 2.53264 -1.81365
lowerneck -13.0372 -2.81872 -4.95887
upperneck 16.5376 -3.71685 4.75979
head 7.40972 -1.65292 1.99383
rclavicle -3.11595e-014 3.97569e-016
rhumerus -23.4508 -0.186657 -83.3332
rradius 57.7935
rwrist -7.29765
rhand 175.987 -69.12
rfingers 7.12502
rthumb -158.258 -40.3211
lclavicle -3.11595e-014 3.97569e-016
lhumerus -45.9356 24.8931 69.0152
lradius 10.5415
lwrist -24.945
lhand -24.0205 -19.509
lfingers 7.12502
lthumb 2.45754 10.4566
rfemur -5.91885 -2.51624 27.698
rtibia 28.4859
rfoot -13.1811 22.5452
rtoes 4.58055
lfemur -35.7852 6.32655 -16.5936
ltibia 40.2685
lfoot -17.1918 5.69015
ltoes -14.6001
265
root 8.34552 16.8184 30.7464 5.94341 -5.1771 -4.26466
lowerback 2.10791 3.90303 6.23292
upperback -3.66605 5.55456 1.30596
thorax -4.53176 2.56214 -2.42793
lowerneck -9.98361 -2.61238 -4.94733
upperneck 17.747 -3.63038 4.84949
head 7.25766 -1.64143 2.06429
rclavicle 1.23433e-014 -1.19271e-014
rhumerus -27.833 1.10544 -83.4424
rradius 59.4465
rwrist -8.59582
rhand 174.289 -71.0251
rfingers 7.12502
rthumb -159.89 -42.0459
lclavicle 1.23433e-014 -1.19271e-014
lhumerus -53.0057 23.3026 64.7158
lradius 10.7219
lwrist -26.4476
lhand -23.0619 -18.6261
lfingers 7.12502
lthumb 3.38328 11.3268
rfemur -4.55881 -3.03472 27.4115
rtibia 27.4446
rfoot -12.2095 23.5502
rtoes 5.69691
lfemur -35.5361 5.68741 -16.1601
ltibia 36.2281
lfoot -17.7563 6.18681
ltoes -13.8813
